<svg width="36" height="36" viewBox="0 0 36 36" fill="none" xmlns="http://www.w3.org/2000/svg">
<rect width="36" height="36" rx="18" fill="#5F337B"/>
<path d="M25 9.00005H20.82C20.25 7.44005 18.53 6.64005 17 7.20005C16.14 7.50005 15.5 8.16005 15.18 9.00005H11C10.4696 9.00005 9.96086 9.21077 9.58579 9.58584C9.21071 9.96091 9 10.4696 9 11.0001V25.0001C9 25.5305 9.21071 26.0392 9.58579 26.4143C9.96086 26.7893 10.4696 27.0001 11 27.0001H25C25.5304 27.0001 26.0391 26.7893 26.4142 26.4143C26.7893 26.0392 27 25.5305 27 25.0001V11.0001C27 10.4696 26.7893 9.96091 26.4142 9.58584C26.0391 9.21077 25.5304 9.00005 25 9.00005ZM18 9.00005C18.2652 9.00005 18.5196 9.10541 18.7071 9.29295C18.8946 9.48048 19 9.73484 19 10.0001C19 10.2653 18.8946 10.5196 18.7071 10.7072C18.5196 10.8947 18.2652 11.0001 18 11.0001C17.7348 11.0001 17.4804 10.8947 17.2929 10.7072C17.1054 10.5196 17 10.2653 17 10.0001C17 9.73484 17.1054 9.48048 17.2929 9.29295C17.4804 9.10541 17.7348 9.00005 18 9.00005ZM13 13.0001H23V11.0001H25V25.0001H11V11.0001H13V13.0001ZM23 17.0001H13V15.0001H23V17.0001ZM21 21.0001H13V19.0001H21V21.0001Z" fill="white"/>
</svg>
