<svg width="64" height="64" viewBox="0 0 64 64" fill="none" xmlns="http://www.w3.org/2000/svg">
<rect x="0.25" y="0.25" width="63.5" height="63.5" rx="31.75" fill="#E1E3E3"/>
<path d="M32 10C42.4073 10 43.894 18.4758 43.894 21.558C43.894 22.5729 43.8134 24.3401 43.6256 26.3913C43.9518 26.3347 44.2313 26.3466 44.4051 26.4737C45.0817 26.9685 44.9519 27.8237 44.8562 28.4538C44.8462 28.5189 44.8367 28.5817 44.8286 28.6414C44.7945 28.888 44.7009 29.1319 44.5941 29.4104C44.4249 29.8516 44.2222 30.3799 44.1698 31.1438C44.1271 31.7655 43.9043 31.9041 43.6193 32.0812C43.2877 32.2873 42.8585 32.4837 42.5579 33.6782C42.2574 34.8729 42.0731 40.1673 39.6287 41.7122C38.8503 42.2042 38.4045 42.5959 38.4045 44.0277C38.4045 45.3364 40.3983 46.9163 44.4687 47.7525C47.95 48.4677 54.093 49.2338 55.7182 53.0507C56.7724 55.526 57.3395 58.6816 58 64H6C6.6605 58.6816 7.22768 55.526 8.28174 53.0507C9.90703 49.2338 16.0499 48.4677 19.5313 47.7525C23.6016 46.9163 25.5954 45.3364 25.5954 44.0277C25.5954 42.5959 25.1497 42.2042 24.3712 41.7122C21.9267 40.1673 21.7426 34.8729 21.4421 33.6782C21.1415 32.4837 20.7123 32.2873 20.3807 32.0812C20.0957 31.9041 19.8729 31.7655 19.8302 31.1438C19.7778 30.3799 19.5751 29.8516 19.4059 29.4104C19.2989 29.1317 19.2055 28.888 19.1715 28.6414C19.1633 28.5817 19.1536 28.5189 19.1438 28.4538C19.0481 27.8237 18.9183 26.9685 19.5949 26.4737C19.7687 26.3466 20.0482 26.3347 20.3744 26.3913C20.1866 24.3401 20.106 22.5729 20.106 21.558C20.106 18.4758 21.5927 10 32 10Z" fill="white"/>
<rect x="0.25" y="0.25" width="63.5" height="63.5" rx="31.75" stroke="#EDEFF1" stroke-width="0.5"/>
</svg>
